PathFileType	4	(X/Y/Z)	pose_F01_0-95.trc
DataRate	CameraRate	NumFrames	NumMarkers	Units	OrigDataRate	OrigDataStartFrame	OrigNumFrames
30	30	6	21	m	30	0	95
Frame#	Time	CHip			RHip			RKnee			RAnkle			RBigToe			RSmallToe			RHeel			LHip			LKnee			LAnkle			LBigToe			LSmallToe			LHeel			Neck			Nose			RShoulder			RElbow			RWrist			LShoulder			LElbow			LWrist			
		X1	Y1	Z1	X2	Y2	Z2	X3	Y3	Z3	X4	Y4	Z4	X5	Y5	Z5	X6	Y6	Z6	X7	Y7	Z7	X8	Y8	Z8	X9	Y9	Z9	X10	Y10	Z10	X11	Y11	Z11	X12	Y12	Z12	X13	Y13	Z13	X14	Y14	Z14	X15	Y15	Z15	X16	Y16	Z16	X17	Y17	Z17	X18	Y18	Z18	X19	Y19	Z19	X20	Y20	Z20	X21	Y21	Z21	
0	0.0	-0.15796533035618723	1.8775272311304658	-0.491878733443352	-0.17221766208340158	1.868205603556051	-0.43509649483567675	-0.1647161205798078	1.7284668723659204	-0.40700684582809404													-0.15856716889880254	1.879436637147017	-0.5350441194727175	-0.1373042212343595	1.7090231334073598	-0.5300158350616534	-0.12830437349472787	1.587997841150481	-0.5161986519953381	-0.1790086431321885	1.540973228733527	-0.5280331340356142	-0.14641715670826078	1.556860175802156	-0.5662602818439887	-0.1081482428762927	1.5922495891368578	-0.5121029662074092	-0.15136553261487132	2.023675306294965	-0.4994227154735619	-0.18113065391385072	2.096538882696726	-0.5301020379797631	-0.16222887171301933	2.0203570342537636	-0.4027445653385868	-0.17264376785495605	1.937420791812697	-0.3871600967119149	-0.18625976736701153	1.890921992690225	-0.3578779579371031	-0.1291506606488641	2.0361527303912403	-0.5868814586819212	-0.12633257847219975	1.9546589568701538	-0.6082943099111783	-0.12628183049740635	1.8766714472103065	-0.6193279114212379
1	0.03333333333333333	-0.15810808531945109	1.8763441267573753	-0.4918404505005609	-0.17224213400778404	1.8680516965989822	-0.43522933057531143	-0.16430927219087296	1.7282242875831633	-0.4074177062942585													-0.15669233307541416	1.8782481725619018	-0.5372445428912405	-0.13674648902997347	1.7112369590745653	-0.5309061435517419	-0.12837465081946253	1.5882661873291481	-0.5161829819741837	-0.17686071848404514	1.542916633539396	-0.5309026733794666	-0.14654554253523017	1.5573515134466758	-0.566274079665051	-0.10976597115305317	1.5902640378937265	-0.5101272849910174	-0.1513712412139921	2.0248643344485155	-0.49994636209930776	-0.1811501641301051	2.0964981714890536	-0.5300429435015556	-0.16305490365589578	2.02162180093246	-0.40580911844923223	-0.1724607046449677	1.9385549197238678	-0.3872177416351657	-0.1870439638665084	1.8883127917666243	-0.3607877367839207	-0.1291231686397416	2.036133110140725	-0.5868840554045708	-0.12632180354137176	1.9545242563412555	-0.6082867877513165	-0.12839971891434793	1.876623451180142	-0.6170873550865248
2	0.06666666666666667	-0.15825084028271494	1.8751610223842847	-0.49180216755776984	-0.1722666059321665	1.8678977896419133	-0.4353621663149461	-0.16390242380193812	1.727981702800406	-0.40782856676042295													-0.1548174972520258	1.8770597079767866	-0.5394449663097635	-0.13618875682558743	1.7134507847417708	-0.5317964520418305	-0.1284449281441972	1.5885345335078154	-0.5161673119530292	-0.17471279383590177	1.544860038345265	-0.533772212723319	-0.14667392836219956	1.5578428510911955	-0.5662878774861132	-0.11138369942981365	1.5882784866505952	-0.5081516037746256	-0.15137694981311287	2.0260533626020663	-0.5004700087250536	-0.18116967434635947	2.096457460281381	-0.529983849023348	-0.16388093559877223	2.0228865676111565	-0.40887367155987764	-0.17227764143497937	1.9396890476350386	-0.3872753865584165	-0.18782816036600528	1.8857035908430235	-0.36369751563073827	-0.1290956766306191	2.0361134898902096	-0.5868866521272204	-0.12631102861054377	1.9543895558123572	-0.6082792655914547	-0.1305176073312895	1.8765754551499776	-0.6148467987518117
3	0.1	-0.1583935952459788	1.8739779180111942	-0.4917638846149788	-0.17229107785654896	1.8677438826848445	-0.4354950020545808	-0.16349557541300327	1.727739118017649	-0.4082394272265874													-0.1529426614286374	1.8758712433916713	-0.5416453897282865	-0.13563102462120138	1.7156646104089763	-0.532686760531919	-0.12851520546893186	1.5888028796864826	-0.5161516419318748	-0.1725648691877584	1.5468034431511342	-0.5366417520671714	-0.14680231418916895	1.5583341887357152	-0.5663016753071755	-0.11300142770657412	1.586292935407464	-0.5061759225582338	-0.15138265841223364	2.027242390755617	-0.5009936553507995	-0.18118918456261385	2.0964167490737085	-0.5299247545451405	-0.16470696754164868	2.024151334289853	-0.41193822467052305	-0.17209457822499102	1.9408231755462093	-0.38733303148166726	-0.18861235686550215	1.8830943899194228	-0.36660729447755586	-0.1290681846214966	2.036093869639694	-0.5868892488498699	-0.12630025367971578	1.9542548552834589	-0.608271743431593	-0.13263549574823108	1.8765274591198131	-0.6126062424170986
4	0.13333333333333333	-0.15853635020924264	1.8727948136381036	-0.4917256016721877	-0.17231554978093142	1.8675899757277756	-0.4356278377942155	-0.16308872702406843	1.7274965332348917	-0.40865028769275186													-0.15106782560524903	1.874682778806556	-0.5438458131468095	-0.13507329241681534	1.7178784360761818	-0.5335770690220075	-0.12858548279366652	1.5890712258651498	-0.5161359719107204	-0.17041694453961503	1.5487468479570032	-0.5395112914110237	-0.14693070001613834	1.5588255263802349	-0.5663154731282377	-0.1146191559833346	1.5843073841643327	-0.504200241341842	-0.1513883670113544	2.0284314189091677	-0.5015173019765454	-0.18120869477886822	2.096376037866036	-0.529865660066933	-0.16553299948452513	2.0254161009685494	-0.41500277778116845	-0.17191151501500268	1.94195730345738	-0.38739067640491803	-0.18939655336499903	1.880485188995822	-0.36951707332437345	-0.1290406926123741	2.036074249389179	-0.5868918455725195	-0.1262894787488878	1.9541201547545606	-0.6082642212717312	-0.13475338416517266	1.8764794630896486	-0.6103656860823855
5	0.16666666666666666	-0.1586791051725065	1.871611709265013	-0.49168731872939664	-0.17234002170531387	1.8674360687707068	-0.4357606735338502	-0.1626818786351336	1.7272539484521345	-0.4090611481589163													-0.14919298978186066	1.8734943142214409	-0.5460462365653325	-0.1345155602124293	1.7200922617433874	-0.534467377512096	-0.12865576011840119	1.589339572043817	-0.5161203018895659	-0.16826901989147167	1.5506902527628723	-0.5423808307548761	-0.14705908584310773	1.5593168640247546	-0.5663292709493	-0.11623688426009507	1.5823218329212014	-0.5022245601254502	-0.1513940756104752	2.0296204470627184	-0.5020409486022913	-0.1812282049951226	2.0963353266583633	-0.5298065655887255	-0.16635903142740158	2.026680867647246	-0.41806733089181386	-0.17172845180501434	1.9430914313685508	-0.3874483213281688	-0.1901807498644959	1.8778759880722213	-0.37242685217119104	-0.1290132006032516	2.0360546291386634	-0.5868944422951691	-0.1262787038180598	1.9539854542256623	-0.6082566991118694	-0.13687127258211423	1.8764314670594842	-0.6081251297476724
